<?xml version="1.0" encoding="utf-8"?>
<!-- Generator: Adobe Illustrator 16.0.0, SVG Export Plug-In . SVG Version: 6.00 Build 0)  -->
<!DOCTYPE svg PUBLIC "-//W3C//DTD SVG 1.1 Tiny//EN" "http://www.w3.org/Graphics/SVG/1.1/DTD/svg11-tiny.dtd">
<svg version="1.1" baseProfile="tiny" id="Layer_1" xmlns="http://www.w3.org/2000/svg" xmlns:xlink="http://www.w3.org/1999/xlink"
	 x="0px" y="0px" width="542.622px" height="501.667px" viewBox="0 0 542.622 501.667" xml:space="preserve">
<g>
	<g>
		<image width="84" height="84" xlink:href="929CF840E5B4E5DD.png"  transform="matrix(0.8965 0 0 0.8965 151.3008 86.3462)">
		</image>
		<g>
			<g>
				<circle fill="#F7FAFC" cx="188.668" cy="123.715" r="5.603"/>
			</g>
			<g>
				<circle fill="#FFFFFF" cx="188.668" cy="123.715" r="5.603"/>
			</g>
		</g>
	</g>
	<g>
		<image width="74" height="74" xlink:href="929CF840E5B4E5DF.png"  transform="matrix(0.8965 0 0 0.8965 224.2959 282.9238)">
		</image>
		<g>
			<g>
				<circle fill="#F7FAFC" cx="257.464" cy="316.09" r="1.4"/>
			</g>
			<g>
				<circle fill="#FFFFFF" cx="257.464" cy="316.09" r="1.4"/>
			</g>
		</g>
	</g>
	<g>
		<g>
			<polygon fill="#2A65A0" points="235.165,336.938 163.831,156.957 98.476,204.096 70.896,282.427 67.372,281.187 95.343,201.752 
				165.536,151.12 238.636,335.559 			"/>
		</g>
		<g>
			<path fill="#2A65A0" d="M366.648,285.254L162.116,154.615l44.748-71.38l-0.733-0.684L70.17,77.022l0.154-3.731l137.347,5.583
				l1.215,1.138l0.877-1.402l3.166,1.984l-1.264,2.017l133.552,124.864l0.144,0.506L366.648,285.254z M167.25,153.462
				l193.211,123.409l-18.563-67.391L209.644,85.834L167.25,153.462z"/>
		</g>
		<g>
			<polygon fill="#2A65A0" points="399.527,421.17 341.493,208.007 378.318,165.431 460.717,172.298 467.614,215.963 
				463.923,216.546 457.485,175.778 379.9,169.312 345.623,208.947 403.131,420.193 			"/>
		</g>
		<g>
			<polygon fill="#2A65A0" points="328.521,345.31 325.267,343.479 360.819,280.147 364.073,281.979 			"/>
		</g>
	</g>
	<g>
		<g>
			<image width="155" height="155" xlink:href="929CF840E5B4E5DA.png"  transform="matrix(0.8965 0 0 0.8965 1.1118 6.0215)">
			</image>
			<g>
				<circle fill="#FFFFFF" cx="70.247" cy="75.156" r="5.603"/>
			</g>
		</g>
		<g>
			<image width="155" height="155" xlink:href="929CF840E5B4E5DB.png"  transform="matrix(0.8965 0 0 0.8965 1.1118 6.0215)">
			</image>
			<g>
				<circle fill="#FFFFFF" cx="70.247" cy="75.156" r="5.603"/>
			</g>
		</g>
		<g>
			<image width="155" height="155" xlink:href="929CF840E5B4E5E5.png"  transform="matrix(0.8965 0 0 0.8965 1.1118 6.0215)">
			</image>
			<g>
				<circle fill="#FFFFFF" cx="70.247" cy="75.156" r="5.603"/>
			</g>
		</g>
	</g>
	<g>
		<g>
			<image width="155" height="155" xlink:href="929CF840E5B4E5E7.png"  transform="matrix(0.8965 0 0 0.8965 140.0786 12.5586)">
			</image>
			<g>
				<circle fill="#FFFFFF" cx="209.212" cy="81.693" r="5.603"/>
			</g>
		</g>
		<g>
			<image width="155" height="155" xlink:href="929CF840E5B4E5EA.png"  transform="matrix(0.8965 0 0 0.8965 140.0786 12.5586)">
			</image>
			<g>
				<circle fill="#FFFFFF" cx="209.212" cy="81.693" r="5.603"/>
			</g>
		</g>
		<g>
			<image width="155" height="155" xlink:href="929CF840E5B4E5EB.png"  transform="matrix(0.8965 0 0 0.8965 140.0786 12.5586)">
			</image>
			<g>
				<circle fill="#FFFFFF" cx="209.212" cy="81.693" r="5.603"/>
			</g>
		</g>
	</g>
	<g>
		<g>
			<image width="155" height="155" xlink:href="929CF840E5B4E5ED.png"  transform="matrix(0.8965 0 0 0.8965 0 212.6729)">
			</image>
			<g>
				<path fill="#FFFFFF" d="M74.738,281.808c0,3.092-2.51,5.603-5.603,5.603c-3.093,0-5.604-2.511-5.604-5.603
					c0-3.098,2.51-5.604,5.604-5.604C72.228,276.204,74.738,278.71,74.738,281.808z"/>
			</g>
		</g>
		<g>
			<image width="155" height="155" xlink:href="30AFE161332538F6.png"  transform="matrix(0.8965 0 0 0.8965 0 212.6729)">
			</image>
			<g>
				<path fill="#FFFFFF" d="M74.738,281.808c0,3.092-2.51,5.603-5.603,5.603c-3.093,0-5.604-2.511-5.604-5.603
					c0-3.098,2.51-5.604,5.604-5.604C72.228,276.204,74.738,278.71,74.738,281.808z"/>
			</g>
		</g>
		<g>
			<image width="155" height="155" xlink:href="30AFE161332538F1.png"  transform="matrix(0.8965 0 0 0.8965 0 212.6729)">
			</image>
			<g>
				<path fill="#FFFFFF" d="M74.738,281.808c0,3.092-2.51,5.603-5.603,5.603c-3.093,0-5.604-2.511-5.604-5.603
					c0-3.098,2.51-5.604,5.604-5.604C72.228,276.204,74.738,278.71,74.738,281.808z"/>
			</g>
		</g>
	</g>
	<g>
		<g>
			<image width="155" height="155" xlink:href="30AFE161332538F2.png"  transform="matrix(0.8965 0 0 0.8965 169.9629 267.5)">
			</image>
			<g>
				<circle fill="#FFFFFF" cx="239.097" cy="336.635" r="5.604"/>
			</g>
		</g>
		<g>
			<image width="155" height="155" xlink:href="30AFE161332538F0.png"  transform="matrix(0.8965 0 0 0.8965 169.9629 267.5)">
			</image>
			<g>
				<circle fill="#FFFFFF" cx="239.097" cy="336.635" r="5.604"/>
			</g>
		</g>
		<g>
			<image width="155" height="155" xlink:href="30AFE1613325390E.png"  transform="matrix(0.8965 0 0 0.8965 169.9629 267.5)">
			</image>
			<g>
				<circle fill="#FFFFFF" cx="239.097" cy="336.635" r="5.604"/>
			</g>
		</g>
	</g>
	<g>
		<g>
			<image width="155" height="155" xlink:href="30AFE16133253911.png"  transform="matrix(0.8965 0 0 0.8965 274.4229 139.3428)">
			</image>
			<g>
				<circle fill="#FFFFFF" cx="343.558" cy="208.477" r="5.603"/>
			</g>
		</g>
		<g>
			<image width="155" height="155" xlink:href="30AFE16133253912.png"  transform="matrix(0.8965 0 0 0.8965 274.4229 139.3428)">
			</image>
			<g>
				<circle fill="#FFFFFF" cx="343.558" cy="208.477" r="5.603"/>
			</g>
		</g>
		<g>
			<image width="155" height="155" xlink:href="30AFE16133253910.png"  transform="matrix(0.8965 0 0 0.8965 274.4229 139.3428)">
			</image>
			<g>
				<circle fill="#FFFFFF" cx="343.558" cy="208.477" r="5.603"/>
			</g>
		</g>
	</g>
	<g>
		<g>
			<image width="155" height="155" xlink:href="30AFE16133253916.png"  transform="matrix(0.8965 0 0 0.8965 293.2295 214.27)">
			</image>
			<g>
				<circle fill="#FFFFFF" cx="362.366" cy="283.405" r="5.604"/>
			</g>
		</g>
		<g>
			<image width="155" height="155" xlink:href="30AFE16133253913.png"  transform="matrix(0.8965 0 0 0.8965 293.2295 214.27)">
			</image>
			<g>
				<circle fill="#FFFFFF" cx="362.366" cy="283.405" r="5.604"/>
			</g>
		</g>
		<g>
			<image width="155" height="155" xlink:href="30AFE16133253935.png"  transform="matrix(0.8965 0 0 0.8965 293.2295 214.27)">
			</image>
			<g>
				<circle fill="#FFFFFF" cx="362.366" cy="283.405" r="5.604"/>
			</g>
		</g>
	</g>
	<g>
		<g>
			<image width="155" height="155" xlink:href="30AFE16133253937.png"  transform="matrix(0.8965 0 0 0.8965 95.2534 87.2676)">
			</image>
			<g>
				<circle fill="#FFFFFF" cx="164.388" cy="156.402" r="5.603"/>
			</g>
		</g>
		<g>
			<image width="155" height="155" xlink:href="30AFE16133253934.png"  transform="matrix(0.8965 0 0 0.8965 95.2534 87.2676)">
			</image>
			<g>
				<circle fill="#FFFFFF" cx="164.388" cy="156.402" r="5.603"/>
			</g>
		</g>
		<g>
			<image width="155" height="155" xlink:href="30AFE16133253933.png"  transform="matrix(0.8965 0 0 0.8965 95.2534 87.2676)">
			</image>
			<g>
				<circle fill="#FFFFFF" cx="164.388" cy="156.402" r="5.603"/>
			</g>
		</g>
	</g>
	<g>
		<g>
			<image width="155" height="155" xlink:href="30AFE1613325393D.png"  transform="matrix(0.8965 0 0 0.8965 256.8115 275.9048)">
			</image>
			<g>
				<path fill="#FFFFFF" d="M331.55,345.039c0,3.098-2.512,5.604-5.604,5.604c-3.094,0-5.605-2.506-5.605-5.604
					c0-3.093,2.512-5.603,5.605-5.603C329.038,339.436,331.55,341.946,331.55,345.039z"/>
			</g>
		</g>
		<g>
			<image width="155" height="155" xlink:href="30AFE1613325393F.png"  transform="matrix(0.8965 0 0 0.8965 256.8115 275.9048)">
			</image>
			<g>
				<path fill="#FFFFFF" d="M331.55,345.039c0,3.098-2.512,5.604-5.604,5.604c-3.094,0-5.605-2.506-5.605-5.604
					c0-3.093,2.512-5.603,5.605-5.603C329.038,339.436,331.55,341.946,331.55,345.039z"/>
			</g>
		</g>
		<g>
			<image width="155" height="155" xlink:href="30AFE1613325393C.png"  transform="matrix(0.8965 0 0 0.8965 256.8115 275.9048)">
			</image>
			<g>
				<path fill="#FFFFFF" d="M331.55,345.039c0,3.098-2.512,5.604-5.604,5.604c-3.094,0-5.605-2.506-5.605-5.604
					c0-3.093,2.512-5.603,5.605-5.603C329.038,339.436,331.55,341.946,331.55,345.039z"/>
			</g>
		</g>
	</g>
	<g>
		<g>
			<image width="155" height="155" xlink:href="30AFE16133253936.png"  transform="matrix(0.8965 0 0 0.8965 332.1943 351.5469)">
			</image>
			<g>
				<circle fill="#FFFFFF" cx="401.329" cy="420.682" r="5.602"/>
			</g>
		</g>
		<g>
			<image width="155" height="155" xlink:href="30AFE16133253909.png"  transform="matrix(0.8965 0 0 0.8965 332.1943 351.5469)">
			</image>
			<g>
				<circle fill="#FFFFFF" cx="401.329" cy="420.682" r="5.602"/>
			</g>
		</g>
		<g>
			<image width="155" height="155" xlink:href="30AFE1613325390A.png"  transform="matrix(0.8965 0 0 0.8965 332.1943 351.5469)">
			</image>
			<g>
				<circle fill="#FFFFFF" cx="401.329" cy="420.682" r="5.602"/>
			</g>
		</g>
	</g>
	<g>
		<g>
			<image width="155" height="155" xlink:href="30AFE16133253958.png"  transform="matrix(0.8965 0 0 0.8965 396.6328 147.1201)">
			</image>
			<g>
				<circle fill="#FFFFFF" cx="465.768" cy="216.255" r="5.603"/>
			</g>
		</g>
		<g>
			<image width="155" height="155" xlink:href="30AFE16133253967.png"  transform="matrix(0.8965 0 0 0.8965 396.6328 147.1201)">
			</image>
			<g>
				<circle fill="#FFFFFF" cx="465.768" cy="216.255" r="5.603"/>
			</g>
		</g>
		<g>
			<image width="155" height="155" xlink:href="30AFE16133253968.png"  transform="matrix(0.8965 0 0 0.8965 396.6328 147.1201)">
			</image>
			<g>
				<circle fill="#FFFFFF" cx="465.768" cy="216.255" r="5.603"/>
			</g>
		</g>
	</g>
	<g>
		<g>
			<image width="155" height="155" xlink:href="30AFE1613325396B.png"  transform="matrix(0.8965 0 0 0.8965 309.1064 101.2749)">
			</image>
			<g>
				<circle fill="#FFFFFF" cx="378.242" cy="170.41" r="5.603"/>
			</g>
		</g>
		<g>
			<image width="155" height="155" xlink:href="30AFE16133253969.png"  transform="matrix(0.8965 0 0 0.8965 309.1064 101.2749)">
			</image>
			<g>
				<circle fill="#FFFFFF" cx="378.242" cy="170.41" r="5.603"/>
			</g>
		</g>
		<g>
			<image width="155" height="155" xlink:href="30AFE1613325396F.png"  transform="matrix(0.8965 0 0 0.8965 309.1064 101.2749)">
			</image>
			<g>
				<circle fill="#FFFFFF" cx="378.242" cy="170.41" r="5.603"/>
			</g>
		</g>
	</g>
	<g>
		<g>
			<image width="155" height="155" xlink:href="30AFE1613325396A.png"  transform="matrix(0.8965 0 0 0.8965 391.2861 105.0107)">
			</image>
			<g>
				<circle fill="#FFFFFF" cx="460.419" cy="174.145" r="5.603"/>
			</g>
		</g>
		<g>
			<image width="155" height="155" xlink:href="30AFE16133253965.png"  transform="matrix(0.8965 0 0 0.8965 391.2861 105.0107)">
			</image>
			<g>
				<circle fill="#FFFFFF" cx="460.419" cy="174.145" r="5.603"/>
			</g>
		</g>
		<g>
			<image width="155" height="155" xlink:href="30AFE16133253966.png"  transform="matrix(0.8965 0 0 0.8965 391.2861 105.0107)">
			</image>
			<g>
				<circle fill="#FFFFFF" cx="460.419" cy="174.145" r="5.603"/>
			</g>
		</g>
	</g>
</g>
</svg>
