<?xml version="1.0" encoding="utf-8"?>
<!-- Generator: Adobe Illustrator 16.0.0, SVG Export Plug-In . SVG Version: 6.00 Build 0)  -->
<!DOCTYPE svg PUBLIC "-//W3C//DTD SVG 1.1//EN" "http://www.w3.org/Graphics/SVG/1.1/DTD/svg11.dtd">
<svg version="1.1" id="Layer_1" xmlns="http://www.w3.org/2000/svg" xmlns:xlink="http://www.w3.org/1999/xlink" x="0px" y="0px"
	 width="200px" height="200px" viewBox="0 0 200 200" enable-background="new 0 0 200 200" xml:space="preserve">
<path fill="#FFFFFF" d="M94.187,4.24c3.262,0,6.524,0,9.787,0c4.062,0.535,8.19,0.773,12.177,1.651
	c39.694,8.741,64.976,32.668,75.385,72.047c1.123,4.243,1.606,8.653,2.386,12.986c0,5.592,0,11.186,0,16.778
	c-0.648,3.648-1.252,7.305-1.951,10.943c-6.938,36.066-37.252,66.38-73.327,73.324c-3.638,0.701-7.294,1.303-10.94,1.951
	c-5.592,0-11.186,0-16.778,0c-4.485-0.808-9.057-1.289-13.44-2.471c-38.505-10.391-62.335-35.045-71.266-73.94
	c-1.018-4.43-1.336-9.021-1.978-13.536c0-3.263,0-6.525,0-9.787c0.146-0.599,0.331-1.192,0.432-1.798
	c1-6.026,1.331-12.254,3.084-18.049C18.93,37.434,43.396,14.583,81.117,6.176C85.404,5.221,89.828,4.871,94.187,4.24z
	 M116.323,122.435c5-1.5,9.87-2.723,14.567-4.426c7.413-2.686,12.628-7.854,15.237-15.311c1.192-3.404,2.002-7.014,2.446-10.597
	c1.049-8.495-0.129-16.541-5.607-23.574c-0.676-0.867-0.948-2.441-0.723-3.549c1.049-5.149,0.77-10.158-0.888-15.127
	c-0.487-1.456-1.311-2.292-2.917-1.927c-2.404,0.544-4.903,0.874-7.166,1.785c-2.861,1.152-5.463,2.939-8.304,4.161
	c-1.309,0.562-3.014,0.859-4.371,0.547c-10.536-2.424-21.051-2.646-31.542,0.053c-2.022,0.521-3.566,0.116-5.233-0.909
	c-4.377-2.691-8.965-4.869-14.086-5.852c-2.212-0.425-3.354,0.226-4.019,2.317c-1.562,4.912-1.794,9.852-0.855,14.919
	c0.207,1.117-0.059,2.637-0.706,3.542c-2.808,3.923-5.029,8.114-5.381,12.937c-0.308,4.224-0.432,8.544,0.095,12.73
	c1.53,12.169,7.677,20.976,19.69,24.906c3.942,1.291,8.039,2.112,11.839,3.091c-1.135,2.809-2.24,5.653-3.455,8.45
	c-0.256,0.59-0.833,1.232-1.415,1.454c-5.406,2.06-12.736,2.414-17.679-3.468c-1.043-1.242-1.913-2.637-2.813-3.99
	c-2.167-3.262-5.113-5.471-8.982-6.07c-1.365-0.21-2.865,0.44-4.304,0.696c0.814,1.185,1.396,2.674,2.482,3.5
	c3.043,2.309,5.684,4.935,6.925,8.562c3.418,9.98,12.331,13.615,22.389,12.171c0.967-0.141,1.953-0.148,2.816-0.209
	c0,5.05,0,9.874,0,14.867c11.525,7.218,27.913,6.527,36.803-0.296c-0.27-2.628-0.637-4.953-0.715-7.287
	c-0.117-3.491-0.07-6.988-0.022-10.483C120.516,133.756,120.827,127.426,116.323,122.435z"/>
</svg>
