<?xml version="1.0" encoding="utf-8"?>
<!-- Generator: Adobe Illustrator 16.0.0, SVG Export Plug-In . SVG Version: 6.00 Build 0)  -->
<!DOCTYPE svg PUBLIC "-//W3C//DTD SVG 1.1//EN" "http://www.w3.org/Graphics/SVG/1.1/DTD/svg11.dtd">
<svg version="1.1" id="Layer_1" xmlns="http://www.w3.org/2000/svg" xmlns:xlink="http://www.w3.org/1999/xlink" x="0px" y="0px"
	 width="100px" height="100px" viewBox="0 0 100 100" enable-background="new 0 0 100 100" xml:space="preserve">
<path fill="#FFFFFF" d="M94.548,18H78V5.453C78,3.214,76.537,1,74.299,1H25.701C23.463,1,22,3.214,22,5.453V18H5.453
	C3.214,18,1,19.413,1,21.652v72.896C1,96.786,3.214,99,5.453,99h89.095C96.786,99,99,96.786,99,94.548V21.652
	C99,19.413,96.786,18,94.548,18z M30,10h40v8H30V10z M50,62.149c-1.483,0-3,0.427-4,1.123V26h8v37.272
	C53,62.576,51.483,62.149,50,62.149z M54.05,70.249c0,2.238-1.812,4.05-4.05,4.05s-4.05-1.812-4.05-4.05s1.812-4.05,4.05-4.05
	S54.05,68.011,54.05,70.249z M10,26h32v32H10V26z M90,90H10V62h32v8.249c0,4.473,3.527,8.1,8,8.1c4.473,0,8-3.627,8-8.1V62h32V90z
	 M90,58H58V26h32V58z"/>
</svg>
