<?xml version="1.0" encoding="utf-8"?>
<!-- Generator: Adobe Illustrator 16.0.0, SVG Export Plug-In . SVG Version: 6.00 Build 0)  -->
<!DOCTYPE svg PUBLIC "-//W3C//DTD SVG 1.1//EN" "http://www.w3.org/Graphics/SVG/1.1/DTD/svg11.dtd">
<svg version="1.1" id="Layer_1" xmlns="http://www.w3.org/2000/svg" xmlns:xlink="http://www.w3.org/1999/xlink" x="0px" y="0px"
	 width="200px" height="200px" viewBox="0 0 200 200" enable-background="new 0 0 200 200" xml:space="preserve">
<path fill="#FFFFFF" d="M94.187,4.24c3.262,0,6.524,0,9.787,0c4.062,0.535,8.19,0.773,12.177,1.651
	c39.694,8.741,64.976,32.667,75.385,72.046c1.123,4.243,1.606,8.654,2.386,12.987c0,5.592,0,11.186,0,16.778
	c-0.648,3.648-1.252,7.305-1.951,10.943c-6.938,36.066-37.252,66.38-73.327,73.324c-3.638,0.701-7.294,1.303-10.94,1.951
	c-5.592,0-11.186,0-16.778,0c-4.485-0.808-9.057-1.289-13.44-2.471c-38.505-10.391-62.335-35.045-71.266-73.94
	c-1.018-4.43-1.336-9.021-1.978-13.536c0-3.263,0-6.525,0-9.787c0.146-0.599,0.331-1.192,0.432-1.798
	c1-6.026,1.331-12.254,3.084-18.049C18.93,37.434,43.396,14.583,81.117,6.176C85.404,5.221,89.828,4.871,94.187,4.24z
	 M102.922,82.92c-0.3-2.918-0.547-5.052-0.727-7.192c-0.11-1.311-0.461-2.211-2.054-2.195c-4.89,0.051-9.78,0.052-14.671,0.007
	c-1.633-0.015-2.258,0.628-2.023,2.252c0.188,1.302,0.324,2.623,0.335,3.937c0.109,12.728,0.203,25.458,0.269,38.187
	c0.036,6.986,0.043,13.974-0.009,20.96c-0.013,1.773,0.594,2.482,2.44,2.45c5.122-0.091,10.247-0.026,15.369-0.03
	c3.382-0.004,3.382-0.01,3.396-3.31c0.056-12.496,0.114-24.993,0.165-37.49c0.018-4.26,2.003-7.515,5.519-9.639
	c5.547-3.35,13.485-1.777,15.248,5.958c0.529,2.317,0.706,4.758,0.721,7.144c0.072,11.49,0.062,22.979,0.012,34.468
	c-0.01,2.025,0.574,2.956,2.784,2.907c5.277-0.12,10.559-0.09,15.836-0.014c2.048,0.03,2.879-0.622,2.861-2.817
	c-0.089-11.722,0.076-23.446-0.095-35.166c-0.079-5.318-0.421-10.606-2.122-15.812c-6.25-19.149-31.039-19.271-41.016-7.225
	C104.585,80.997,103.985,81.677,102.922,82.92z M71.689,107.402c0-10.406-0.036-20.812,0.032-31.217
	c0.013-1.957-0.493-2.72-2.615-2.66c-5.353,0.154-10.716,0.132-16.071,0.01c-1.981-0.045-2.551,0.689-2.548,2.55
	c0.036,20.889,0.035,41.779,0,62.667c-0.002,1.786,0.615,2.442,2.438,2.41c5.356-0.091,10.718-0.123,16.072,0.014
	c2.17,0.057,2.752-0.7,2.735-2.79C71.644,128.06,71.692,117.73,71.689,107.402z M61,65.526c6.393,0.056,11.339-4.458,11.383-10.39
	c0.045-6.097-4.616-10.708-10.964-10.847c-6.354-0.14-11.454,4.538-11.541,10.584C49.792,60.89,54.574,65.47,61,65.526z"/>
</svg>
