<?xml version="1.0" encoding="utf-8"?>
<!-- Generator: Adobe Illustrator 16.0.0, SVG Export Plug-In . SVG Version: 6.00 Build 0)  -->
<!DOCTYPE svg PUBLIC "-//W3C//DTD SVG 1.1 Tiny//EN" "http://www.w3.org/Graphics/SVG/1.1/DTD/svg11-tiny.dtd">
<svg version="1.1" baseProfile="tiny" id="Layer_1" xmlns="http://www.w3.org/2000/svg" xmlns:xlink="http://www.w3.org/1999/xlink"
	 x="0px" y="0px" width="272.414px" height="253.448px" viewBox="0 0 272.414 253.448" xml:space="preserve">
<g>
	<image width="922" height="815" xlink:href="4FEC4F9E4F8B4D25.png"  transform="matrix(0.24 0 0 0.24 34.8843 27.4448)">
	</image>
	<g>
		<image width="1030" height="917" xlink:href="4FEC4F9E4F8B4D27.png"  transform="matrix(0.24 0 0 0.24 12.1279 14.7847)">
		</image>
		<g>
			<g>
				<g>
					<g>
						<path fill="none" stroke="#57A1CE" stroke-width="0.25" stroke-miterlimit="10" d="M209.025,209.477
							c-4.671-6.657-10.743-12.496-15.122-19.258c-7.673-11.846-15.182-29.813-16.455-43.862
							c-0.264-2.948-3.053-15.642,0.208-17.519c9.674-4.922,19.314-9.902,29.038-14.71c13.248-6.559,4.113-2.866,17.597-8.899
							c0,0,15.645-5.882,21.732-11.588c7.721-7.225,7.645-18.125,9.392-27.816c0.226-4.527,0.503-9.058,0.701-13.582
							c0.135-3.026-0.232-6.065-0.446-9.083c-0.202-2.956-0.386-5.962-1.206-8.821c-1.509-5.262-6.815-9.101-11.698-5.463
							c-3.669,2.74-4.771,7.331-5.26,11.648c-0.361,3.19-0.511,6.37-0.589,9.549c0,0-0.188,14.718-1.233,17.588
							c-1.984,5.441-7.969,7.088-11.079,4.133c-4.42-4.186-2.731-20.625-4.328-26.196c-1.063-3.713-4.812-6.424-8.261-3.855
							c-2.586,1.935-3.369,5.176-3.714,8.223c-0.329,2.937-0.408,5.856-0.45,8.785l-0.034,2.117
							c0.067,2.333,0.023,13.026-0.812,15.325c-1.466,4.014-5.88,5.232-8.178,3.051c-3.264-3.089-2.021-17.414-3.197-21.53
							c-0.785-2.74-3.548-4.743-6.098-2.846c-1.912,1.426-2.487,3.82-2.739,6.071c-0.287,2.499-0.316,4.986-0.346,7.486
							c0.053,0.796,0.105,1.601,0.14,2.4c0,0,0.025,14.364-3.374,20.219c-1.684,2.901-11.169,10.142-13.363,11.569
							c-3.257,2.123-6.969,3.58-10.81,4.223c-3.577-0.894-7.023-2.19-10.645-2.957c-5.518-1.167-10.602-0.479-16.124,0.289
							c-2.061,0.284-5.522,1.428-7.573,0.869c-0.845-0.231-1.684-0.508-2.509-0.827l-1.011-0.439
							c-2.191-1.425-11.68-8.669-13.359-11.569c-3.401-5.858-3.643-13.629-3.369-20.216c0.031-0.804,0.08-1.606,0.14-2.403
							c-0.032-2.499-0.062-4.985-0.351-7.484c-0.255-2.252-0.829-4.646-2.741-6.07c-2.545-1.9-5.312,0.103-6.098,2.841
							c-1.177,4.118,0.071,18.443-3.193,21.532c-2.301,2.181-6.714,0.967-8.18-3.051c-0.837-2.296-0.881-12.991-0.814-15.325
							l-0.034-2.117c-0.038-2.929-0.117-5.849-0.453-8.785c-0.341-3.045-1.119-6.289-3.712-8.224
							c-3.444-2.567-7.195,0.144-8.259,3.855c-1.589,5.572,0.096,22.011-4.321,26.197c-3.12,2.954-9.1,1.306-11.082-4.136
							c-1.048-2.868-1.236-17.587-1.236-17.587c-0.079-3.177-0.227-6.354-0.592-9.549c-0.483-4.317-1.583-8.906-5.257-11.646
							c-4.886-3.639-10.192,0.202-11.698,5.459c-0.821,2.86-1.007,5.871-1.208,8.826c-0.208,3.015-0.582,6.057-0.446,9.08
							c0.199,4.527,0.48,9.058,0.7,13.582c1.75,9.695,1.675,20.595,9.391,27.816c6.098,5.707,21.737,11.589,21.737,11.589
							c13.486,6.033,4.346,2.343,17.593,8.901c6.109,3.018,12.189,6.109,18.268,9.21l1.078,0.364
							c0.093,0.057,0.181,0.116,0.272,0.173c-9.291,14.449-37.382,19.953-37.382,19.953c-30.847,10.082-27.64,42.77-13.829,51.609
							c13.813,8.848,21.521-0.694,21.521-0.694l0.347-0.311l2.405,0.122l0.327,3.986c6.688,8.367,20.947-1.922,20.947-1.922
							s10.361,1.318,10.997,6.432c0.431,3.451,2.4,12.979,3.64,18.803L209.025,209.477z"/>
					</g>
				</g>
			</g>
		</g>
		<g>
			<image width="90" height="90" xlink:href="4FEC4F9E4F8B4D22.png"  transform="matrix(0.24 0 0 0.24 73.3652 157.7563)">
			</image>
			<g>
				<g>
					<circle fill="#F7FAFC" cx="84.093" cy="168.485" r="2.224"/>
				</g>
				<g>
					<circle fill="#FFFFFF" cx="84.093" cy="168.485" r="2.224"/>
				</g>
			</g>
		</g>
		<g>
			<image width="90" height="90" xlink:href="4FEC4F9E4F8B4D23.png"  transform="matrix(0.24 0 0 0.24 73.6104 128.5776)">
			</image>
			<g>
				<g>
					<circle fill="#F7FAFC" cx="84.339" cy="139.305" r="2.225"/>
				</g>
				<g>
					<circle fill="#FFFFFF" cx="84.339" cy="139.305" r="2.225"/>
				</g>
			</g>
		</g>
		<g>
			<g>
				<image width="161" height="161" xlink:href="4FEC4F9E4F8B4D2D.png"  transform="matrix(0.24 0 0 0.24 157.3027 93.6382)">
				</image>
				<g>
					<circle fill="#FFFFFF" cx="176.535" cy="112.871" r="2.225"/>
				</g>
			</g>
			<g>
				<image width="161" height="161" xlink:href="4FEC4F9E4F8B4D2F.png"  transform="matrix(0.24 0 0 0.24 157.3027 93.6382)">
				</image>
				<g>
					<circle fill="#FFFFFF" cx="176.535" cy="112.871" r="2.225"/>
				</g>
			</g>
			<g>
				<image width="161" height="161" xlink:href="4FEC4F9E4F8B4D20.png"  transform="matrix(0.24 0 0 0.24 157.3027 93.6382)">
				</image>
				<g>
					<circle fill="#FFFFFF" cx="176.535" cy="112.871" r="2.225"/>
				</g>
			</g>
		</g>
		<g>
			<image width="90" height="90" xlink:href="4FEC4F9E4F8B4D21.png"  transform="matrix(0.24 0 0 0.24 72.3765 85.064)">
			</image>
			<g>
				<g>
					<circle fill="#F7FAFC" cx="83.105" cy="95.793" r="2.225"/>
				</g>
				<g>
					<circle fill="#FFFFFF" cx="83.105" cy="95.793" r="2.225"/>
				</g>
			</g>
		</g>
		<g>
			<g>
				<image width="161" height="161" xlink:href="4FEC4F9E4F8B4D26.png"  transform="matrix(0.24 0 0 0.24 107.6826 178.0474)">
				</image>
				<g>
					<circle fill="#FFFFFF" cx="126.914" cy="197.281" r="2.224"/>
				</g>
			</g>
			<g>
				<image width="161" height="161" xlink:href="8D2781E17F22266E.png"  transform="matrix(0.24 0 0 0.24 107.6826 178.0474)">
				</image>
				<g>
					<circle fill="#FFFFFF" cx="126.914" cy="197.281" r="2.224"/>
				</g>
			</g>
			<g>
				<image width="161" height="161" xlink:href="8D2781E17F222669.png"  transform="matrix(0.24 0 0 0.24 107.6826 178.0474)">
				</image>
				<g>
					<circle fill="#FFFFFF" cx="126.914" cy="197.281" r="2.224"/>
				</g>
			</g>
		</g>
		<g>
			<g>
				<image width="161" height="161" xlink:href="8D2781E17F22266A.png"  transform="matrix(0.24 0 0 0.24 126.3447 142.3931)">
				</image>
				<g>
					<circle fill="#FFFFFF" cx="145.577" cy="161.625" r="2.225"/>
				</g>
			</g>
			<g>
				<image width="161" height="161" xlink:href="8D2781E17F222668.png"  transform="matrix(0.24 0 0 0.24 126.3447 142.3931)">
				</image>
				<g>
					<circle fill="#FFFFFF" cx="145.577" cy="161.625" r="2.225"/>
				</g>
			</g>
			<g>
				<image width="161" height="161" xlink:href="8D2781E17F222666.png"  transform="matrix(0.24 0 0 0.24 126.3447 142.3931)">
				</image>
				<g>
					<circle fill="#FFFFFF" cx="145.577" cy="161.625" r="2.225"/>
				</g>
			</g>
		</g>
		<g>
			<g>
				<image width="161" height="161" xlink:href="8D2781E17F222679.png"  transform="matrix(0.24 0 0 0.24 39.3999 180.0259)">
				</image>
				<g>
					<circle fill="#FFFFFF" cx="58.632" cy="199.257" r="2.225"/>
				</g>
			</g>
			<g>
				<image width="161" height="161" xlink:href="8D2781E17F22267A.png"  transform="matrix(0.24 0 0 0.24 39.3999 180.0259)">
				</image>
				<g>
					<circle fill="#FFFFFF" cx="58.632" cy="199.257" r="2.225"/>
				</g>
			</g>
			<g>
				<image width="161" height="161" xlink:href="8D2781E17F222678.png"  transform="matrix(0.24 0 0 0.24 39.3999 180.0259)">
				</image>
				<g>
					<circle fill="#FFFFFF" cx="58.632" cy="199.257" r="2.225"/>
				</g>
			</g>
		</g>
		<g>
			<g>
				<image width="161" height="161" xlink:href="8D2781E17F22267E.png"  transform="matrix(0.24 0 0 0.24 23.8281 155.7407)">
				</image>
				<g>
					<circle fill="#FFFFFF" cx="43.061" cy="174.973" r="2.225"/>
				</g>
			</g>
			<g>
				<image width="161" height="161" xlink:href="8D2781E17F22267B.png"  transform="matrix(0.24 0 0 0.24 23.8281 155.7407)">
				</image>
				<g>
					<circle fill="#FFFFFF" cx="43.061" cy="174.973" r="2.225"/>
				</g>
			</g>
			<g>
				<image width="161" height="161" xlink:href="8D2781E17F22269D.png"  transform="matrix(0.24 0 0 0.24 23.8281 155.7407)">
				</image>
				<g>
					<circle fill="#FFFFFF" cx="43.061" cy="174.973" r="2.225"/>
				</g>
			</g>
		</g>
		<g>
			<g>
				<image width="161" height="161" xlink:href="8D2781E17F22269F.png"  transform="matrix(0.24 0 0 0.24 54.4155 159.8188)">
				</image>
				<g>
					<circle fill="#FFFFFF" cx="73.648" cy="179.051" r="2.225"/>
				</g>
			</g>
			<g>
				<image width="161" height="161" xlink:href="8D2781E17F22269C.png"  transform="matrix(0.24 0 0 0.24 54.4155 159.8188)">
				</image>
				<g>
					<circle fill="#FFFFFF" cx="73.648" cy="179.051" r="2.225"/>
				</g>
			</g>
			<g>
				<image width="161" height="161" xlink:href="8D2781E17F22269B.png"  transform="matrix(0.24 0 0 0.24 54.4155 159.8188)">
				</image>
				<g>
					<circle fill="#FFFFFF" cx="73.648" cy="179.051" r="2.225"/>
				</g>
			</g>
		</g>
		<g>
			<g>
				<image width="161" height="161" xlink:href="8D2781E17F222695.png"  transform="matrix(0.24 0 0 0.24 19.6279 67.1914)">
				</image>
				<g>
					<circle fill="#FFFFFF" cx="38.861" cy="86.423" r="2.225"/>
				</g>
			</g>
			<g>
				<image width="161" height="161" xlink:href="8D2781E17F222697.png"  transform="matrix(0.24 0 0 0.24 19.6279 67.1914)">
				</image>
				<g>
					<circle fill="#FFFFFF" cx="38.861" cy="86.423" r="2.225"/>
				</g>
			</g>
			<g>
				<image width="161" height="161" xlink:href="8D2781E17F222694.png"  transform="matrix(0.24 0 0 0.24 19.6279 67.1914)">
				</image>
				<g>
					<circle fill="#FFFFFF" cx="38.861" cy="86.423" r="2.225"/>
				</g>
			</g>
		</g>
		<g>
			<g>
				<image width="161" height="161" xlink:href="8D2781E17F22268B.png"  transform="matrix(0.24 0 0 0.24 50.9565 34.0078)">
				</image>
				<g>
					<circle fill="#FFFFFF" cx="70.19" cy="53.24" r="2.225"/>
				</g>
			</g>
			<g>
				<image width="161" height="161" xlink:href="8D2781E17F22268D.png"  transform="matrix(0.24 0 0 0.24 50.9565 34.0078)">
				</image>
				<g>
					<circle fill="#FFFFFF" cx="70.19" cy="53.24" r="2.225"/>
				</g>
			</g>
			<g>
				<image width="161" height="161" xlink:href="8D2781E17F22268F.png"  transform="matrix(0.24 0 0 0.24 50.9565 34.0078)">
				</image>
				<g>
					<circle fill="#FFFFFF" cx="70.19" cy="53.24" r="2.225"/>
				</g>
			</g>
		</g>
		<g>
			<g>
				<image width="161" height="161" xlink:href="8D2781E17F2226B0.png"  transform="matrix(0.24 0 0 0.24 80.2476 112.0532)">
				</image>
				<g>
					<circle fill="#FFFFFF" cx="99.48" cy="131.286" r="2.225"/>
				</g>
			</g>
			<g>
				<image width="161" height="161" xlink:href="8D2781E17F22268E.png"  transform="matrix(0.24 0 0 0.24 80.2476 112.0532)">
				</image>
				<g>
					<circle fill="#FFFFFF" cx="99.48" cy="131.286" r="2.225"/>
				</g>
			</g>
			<g>
				<image width="161" height="161" xlink:href="8D2781E17F222690.png"  transform="matrix(0.24 0 0 0.24 80.2476 112.0532)">
				</image>
				<g>
					<circle fill="#FFFFFF" cx="99.48" cy="131.286" r="2.225"/>
				</g>
			</g>
		</g>
		<g>
			<g>
				<image width="161" height="161" xlink:href="8D2781E17F222693.png"  transform="matrix(0.24 0 0 0.24 112.4404 92.7109)">
				</image>
				<g>
					<circle fill="#FFFFFF" cx="131.673" cy="111.944" r="2.225"/>
				</g>
			</g>
			<g>
				<image width="161" height="161" xlink:href="8D2781E17F222691.png"  transform="matrix(0.24 0 0 0.24 112.4404 92.7109)">
				</image>
				<g>
					<circle fill="#FFFFFF" cx="131.673" cy="111.944" r="2.225"/>
				</g>
			</g>
			<g>
				<image width="161" height="161" xlink:href="8D2781E17F222696.png"  transform="matrix(0.24 0 0 0.24 112.4404 92.7109)">
				</image>
				<g>
					<circle fill="#FFFFFF" cx="131.673" cy="111.944" r="2.225"/>
				</g>
			</g>
		</g>
		<g>
			<g>
				<image width="161" height="161" xlink:href="8D2781E17F222692.png"  transform="matrix(0.24 0 0 0.24 185.9131 186.2056)">
				</image>
				<g>
					<path fill="#FFFFFF" d="M207.369,205.438c0,1.23-0.995,2.223-2.226,2.223c-1.227,0-2.223-0.992-2.223-2.223
						s0.996-2.225,2.223-2.225C206.374,203.213,207.369,204.208,207.369,205.438z"/>
				</g>
			</g>
			<g>
				<image width="161" height="161" xlink:href="8D2781E17F22269E.png"  transform="matrix(0.24 0 0 0.24 185.9131 186.2056)">
				</image>
				<g>
					<path fill="#FFFFFF" d="M207.369,205.438c0,1.23-0.995,2.223-2.226,2.223c-1.227,0-2.223-0.992-2.223-2.223
						s0.996-2.225,2.223-2.225C206.374,203.213,207.369,204.208,207.369,205.438z"/>
				</g>
			</g>
			<g>
				<image width="161" height="161" xlink:href="8D2781E17F22269A.png"  transform="matrix(0.24 0 0 0.24 185.9131 186.2056)">
				</image>
				<g>
					<path fill="#FFFFFF" d="M207.369,205.438c0,1.23-0.995,2.223-2.226,2.223c-1.227,0-2.223-0.992-2.223-2.223
						s0.996-2.225,2.223-2.225C206.374,203.213,207.369,204.208,207.369,205.438z"/>
				</g>
			</g>
		</g>
		<g>
			<g>
				<image width="161" height="161" xlink:href="8D2781E17F222699.png"  transform="matrix(0.24 0 0 0.24 168.3018 104.6382)">
				</image>
				<g>
					<circle fill="#FFFFFF" cx="187.534" cy="123.87" r="2.224"/>
				</g>
			</g>
			<g>
				<image width="161" height="161" xlink:href="8D2781E17F2226FB.png"  transform="matrix(0.24 0 0 0.24 168.3018 104.6382)">
				</image>
				<g>
					<circle fill="#FFFFFF" cx="187.534" cy="123.87" r="2.224"/>
				</g>
			</g>
			<g>
				<image width="161" height="161" xlink:href="8D2781E17F2226FD.png"  transform="matrix(0.24 0 0 0.24 168.3018 104.6382)">
				</image>
				<g>
					<circle fill="#FFFFFF" cx="187.534" cy="123.87" r="2.224"/>
				</g>
			</g>
		</g>
		<g>
			<g>
				<image width="161" height="161" xlink:href="8D2781E17F2226FF.png"  transform="matrix(0.24 0 0 0.24 230.4043 70.8989)">
				</image>
				<g>
					<circle fill="#FFFFFF" cx="249.637" cy="90.131" r="2.225"/>
				</g>
			</g>
			<g>
				<image width="161" height="161" xlink:href="8D2781E17F2226FA.png"  transform="matrix(0.24 0 0 0.24 230.4043 70.8989)">
				</image>
				<g>
					<circle fill="#FFFFFF" cx="249.637" cy="90.131" r="2.225"/>
				</g>
			</g>
			<g>
				<image width="161" height="161" xlink:href="8D2781E17F2226F9.png"  transform="matrix(0.24 0 0 0.24 230.4043 70.8989)">
				</image>
				<g>
					<circle fill="#FFFFFF" cx="249.637" cy="90.131" r="2.225"/>
				</g>
			</g>
		</g>
	</g>
</g>
</svg>
