<?xml version="1.0" encoding="utf-8"?>
<!-- Generator: Adobe Illustrator 16.0.0, SVG Export Plug-In . SVG Version: 6.00 Build 0)  -->
<!DOCTYPE svg PUBLIC "-//W3C//DTD SVG 1.1//EN" "http://www.w3.org/Graphics/SVG/1.1/DTD/svg11.dtd">
<svg version="1.1" id="Layer_1" xmlns="http://www.w3.org/2000/svg" xmlns:xlink="http://www.w3.org/1999/xlink" x="0px" y="0px"
	 width="200px" height="200px" viewBox="0 0 200 200" enable-background="new 0 0 200 200" xml:space="preserve">
<path fill="#FFFFFF" d="M94.413,4.466c3.262,0,6.524,0,9.787,0c4.062,0.536,8.19,0.773,12.177,1.651
	c39.693,8.741,64.976,32.667,75.386,72.047c1.121,4.243,1.604,8.654,2.384,12.986c0,5.593,0,11.186,0,16.777
	c-0.647,3.649-1.25,7.306-1.95,10.945c-6.939,36.066-37.253,66.378-73.328,73.323c-3.637,0.7-7.293,1.303-10.94,1.95
	c-5.592,0-11.185,0-16.777,0c-4.484-0.807-9.056-1.288-13.439-2.471c-38.505-10.39-62.336-35.043-71.267-73.939
	c-1.017-4.43-1.335-9.021-1.979-13.536c0-3.263,0-6.525,0-9.787c0.146-0.599,0.332-1.191,0.433-1.798
	c1.001-6.026,1.33-12.253,3.085-18.049C19.156,37.66,43.623,14.809,81.343,6.403C85.631,5.447,90.053,5.097,94.413,4.466z
	 M144.642,67.231c-30.304,0-60.331,0-90.358,0c0.337,1.017,0.793,1.508,1.312,1.919c13.752,10.898,27.53,21.765,41.24,32.716
	c1.412,1.128,2.282,0.906,3.56-0.089c14.209-11.07,28.457-22.09,42.688-33.132C143.596,68.247,144.049,67.772,144.642,67.231z
	 M51.782,130.166c0.097,0.195,0.193,0.39,0.289,0.585c31.973,0.397,63.944,0.795,96.477,1.2c-0.669-0.731-0.833-0.985-1.062-1.151
	c-13.053-9.486-26.099-18.981-39.208-28.389c-0.569-0.407-1.928-0.317-2.567,0.091c-1.824,1.163-3.489,2.581-5.172,3.955
	c-1.346,1.099-2.583,1.178-3.946,0.004c-1.409-1.214-3.014-2.215-4.344-3.504c-1.357-1.315-2.341-1.067-3.753-0.015
	c-11.572,8.618-23.206,17.155-34.817,25.722C53.03,129.143,52.414,129.665,51.782,130.166z M110.128,99.001
	c13.476,9.766,26.574,19.259,40.07,29.039c0-20.292,0-39.856,0-60.066C136.699,78.426,123.625,88.55,110.128,99.001z M48.604,68.45
	c0,20.005,0,39.344,0,59.234c13.076-9.641,25.754-18.987,38.737-28.559C74.361,88.848,61.686,78.81,48.604,68.45z"/>
</svg>
