<?xml version="1.0" encoding="utf-8"?>
<!-- Generator: Adobe Illustrator 16.0.0, SVG Export Plug-In . SVG Version: 6.00 Build 0)  -->
<!DOCTYPE svg PUBLIC "-//W3C//DTD SVG 1.1//EN" "http://www.w3.org/Graphics/SVG/1.1/DTD/svg11.dtd">
<svg version="1.1" id="Layer_1" xmlns="http://www.w3.org/2000/svg" xmlns:xlink="http://www.w3.org/1999/xlink" x="0px" y="0px"
	 width="200px" height="200px" viewBox="0 0 200 200" enable-background="new 0 0 200 200" xml:space="preserve">
<path fill="#FFFFFF" d="M94.187,5.24c3.262,0,6.523,0,9.788,0c4.062,0.535,8.189,0.772,12.177,1.65
	c39.693,8.741,64.975,32.667,75.383,72.047c1.124,4.243,1.608,8.653,2.387,12.987c0,5.592,0,11.186,0,16.776
	c-0.647,3.649-1.252,7.306-1.951,10.944c-6.939,36.067-37.252,66.38-73.328,73.324c-3.637,0.702-7.293,1.304-10.94,1.951
	c-5.591,0-11.185,0-16.776,0c-4.485-0.809-9.058-1.289-13.441-2.472c-38.505-10.39-62.335-35.043-71.266-73.939
	c-1.018-4.43-1.336-9.021-1.978-13.535c0-3.265,0-6.526,0-9.788c0.146-0.599,0.331-1.191,0.432-1.797
	c1-6.027,1.331-12.255,3.084-18.05c11.174-36.906,35.639-59.757,73.36-68.164C85.404,6.221,89.827,5.871,94.187,5.24z
	 M155.417,58.98c-3.89,1.396-7.264,2.516-10.561,3.821c-2.242,0.887-4.064,0.751-5.973-0.914c-3.855-3.36-8.424-5.368-13.561-5.379
	c-12.31-0.023-24.16,8.613-23.784,23.697c0.035,1.364,0.004,2.729,0.004,4.377c-19.171-1.187-34.367-9.48-46.693-23.458
	c-2.102,2.581-3.339,6.523-3.4,10.85c-0.109,7.789,3.195,14.015,8.804,19.415c-2.905-0.743-5.812-1.487-8.98-2.297
	c0.78,11.532,6.734,18.625,16.936,22.855c-2.85,0-5.701,0-8.854,0c3.776,9.803,10.818,14.741,20.682,16.335
	c-2.858,1.869-5.625,3.585-8.539,5.001c-7.236,3.52-14.99,4.606-23.064,4.511c0.679,0.755,1.388,1.282,2.155,1.716
	c14.646,8.26,30.278,10.131,46.563,6.759c23.02-4.766,49.015-26.16,50.195-62.171c0.108-3.32,0.972-5.64,3.659-7.706
	c2.365-1.813,4.196-4.328,6.224-6.569c0.36-0.401,0.529-0.979,0.991-1.865c-3.965,1.023-7.479,1.93-10.996,2.836
	C150.692,67.474,153.828,64.156,155.417,58.98z"/>
</svg>
